{"title":"Damage.2009.x264.AC3(5.1).Multisub.mkv-Zen_Bud","uid":5809766,"size":1561171849,"categoryP":"video","categoryS":"movies","magnet":"?xt=urn:btih:b7029646f320ba7b4ef0f18585001bda8fa31649&amp;dn=Damage.2009.x264.AC3%285.1%29.Multisub.mkv-Zen_Bud&amp;tr=udp%3A%2F%2Ftracker.openbittorrent.com%3A80&amp;tr=udp%3A%2F%2Fopen.demonii.com%3A1337&amp;tr=udp%3A%2F%2Ftracker.coppersurfer.tk%3A6969&amp;tr=udp%3A%2F%2Fexodus.desync.com%3A6969","seeders":0,"leechers":0,"uploader":"Zen_Bud","files":-1,"time":1283585155,"description":"\n***** Damage.2009.x264.AC3(5.1).Multisub.mkv-Zen_Bud *****\n\nFormat                           : Matroska\nFile size                        : 1.45 GiB\nDuration                         : 1h 47mn\nOverall bit rate                 : 1 930 Kbps\nWriting application              : HandBrake svn3506\nWriting library                  : libmkv 0.6.4.1\n\nVideo\n\nFormat                           : AVC\nDuration                         : 1h 47mn\nBit rate                         : 1 443 Kbps\nWidth                            : 720 pixels\nHeight                           : 576 pixels\nDisplay aspect ratio             : 16:9\nStream size                      : 1.09 GiB (75%)\nWriting library                  : x264 core 104\n\n\nAudio\n\nFormat                           : AC-3\nDuration                         : 1h 47mn\nBit rate                         : 448 Kbps\nChannel(s)                       : 6 channels\nChannel positions                : Front: L C R, Side: L R, LFE\nSampling rate                    : 48.0 KHz\nBit depth                        : 16 bits\nStream size                      : 346 MiB (23%)\nLanguage                         : English\n\nText #1\nLanguage                         : Swedish\n\nText #2\nLanguage                         : Norwegian\n\nText #3\nLanguage                         : Finnish\n\nMenu\n00:00:00.000                     : Chapter  1\n00:05:40.800                     : Chapter  2\n\n\n","torrent":{"xt":"urn:btih:b7029646f320ba7b4ef0f18585001bda8fa31649","amp;dn":"Damage.2009.x264.AC3%285.1%29.Multisub.mkv-Zen_Bud","amp;tr":["udp%3A%2F%2Ftracker.openbittorrent.com%3A80","udp%3A%2F%2Fopen.demonii.com%3A1337","udp%3A%2F%2Ftracker.coppersurfer.tk%3A6969","udp%3A%2F%2Fexodus.desync.com%3A6969"],"infoHash":"b7029646f320ba7b4ef0f18585001bda8fa31649","infoHashBuffer":{"type":"Buffer","data":[183,2,150,70,243,32,186,123,78,240,241,133,133,0,27,218,143,163,22,73]},"announce":[],"urlList":[]}}